<mxfile host="65bd71144e">
    <diagram id="raBLTEfR7dI8Dt4Dc0CI" name="Page-1">
        <mxGraphModel dx="851" dy="786" grid="1" gridSize="10" guides="1" tooltips="1" connect="1" arrows="1" fold="1" page="1" pageScale="1" pageWidth="827" pageHeight="1169" math="0" shadow="0">
            <root>
                <mxCell id="0"/>
                <mxCell id="1" parent="0"/>
                <mxCell id="2" value="&lt;font style=&quot;font-size: 16px;&quot;&gt;Saas Page&lt;/font&gt;" style="text;html=1;align=center;verticalAlign=middle;whiteSpace=wrap;rounded=0;" parent="1" vertex="1">
                    <mxGeometry x="185.5" y="38" width="120" height="30" as="geometry"/>
                </mxCell>
                <mxCell id="3" value="&lt;font style=&quot;font-size: 16px;&quot;&gt;Background&lt;/font&gt;" style="text;html=1;align=center;verticalAlign=middle;whiteSpace=wrap;rounded=0;" parent="1" vertex="1">
                    <mxGeometry x="955.5" y="38" width="110" height="30" as="geometry"/>
                </mxCell>
                <mxCell id="4" value="&lt;font style=&quot;font-size: 16px;&quot;&gt;Content&lt;/font&gt;" style="text;html=1;align=center;verticalAlign=middle;whiteSpace=wrap;rounded=0;" parent="1" vertex="1">
                    <mxGeometry x="583.5" y="38" width="110" height="30" as="geometry"/>
                </mxCell>
                <mxCell id="6" value="&lt;div&gt;&lt;span style=&quot;color: rgb(63, 63, 63);&quot;&gt;&lt;font&gt;注册监听 Page 事件&lt;/font&gt;&lt;/span&gt;&lt;/div&gt;&lt;div&gt;&lt;span style=&quot;color: rgb(63, 63, 63);&quot;&gt;&lt;font&gt;&lt;span style=&quot;color: rgb(63, 63, 63);&quot;&gt;type以&amp;nbsp;&lt;/span&gt;&lt;b style=&quot;color: rgb(63, 63, 63); background-color: transparent;&quot;&gt;ginkgo&lt;/b&gt;&lt;/font&gt;&lt;/span&gt;&lt;b style=&quot;background-color: transparent; color: rgb(63, 63, 63);&quot;&gt;-&lt;/b&gt;&lt;b style=&quot;background-color: transparent; color: rgb(63, 63, 63);&quot;&gt;msg-&lt;/b&gt;&lt;span style=&quot;background-color: transparent; color: rgb(63, 63, 63);&quot;&gt;&lt;b style=&quot;color: rgb(63, 63, 63);&quot;&gt;content&lt;/b&gt;&lt;/span&gt;&lt;b style=&quot;background-color: transparent; color: rgb(63, 63, 63);&quot;&gt;-&lt;/b&gt;&lt;span style=&quot;background-color: transparent; color: rgb(63, 63, 63);&quot;&gt;&amp;nbsp;开头&lt;/span&gt;&lt;/div&gt;&lt;span style=&quot;color: rgb(63, 63, 63);&quot;&gt;&lt;font&gt;window.addEventListener(&quot;message&quot;, handleMessage);&lt;/font&gt;&lt;/span&gt;" style="rounded=1;whiteSpace=wrap;html=1;" parent="1" vertex="1">
                    <mxGeometry x="473.5" y="88" width="331" height="60" as="geometry"/>
                </mxCell>
                <mxCell id="26" style="edgeStyle=none;html=1;exitX=1;exitY=0.5;exitDx=0;exitDy=0;entryX=0;entryY=0.5;entryDx=0;entryDy=0;" parent="1" source="8" target="25" edge="1">
                    <mxGeometry relative="1" as="geometry"/>
                </mxCell>
                <mxCell id="8" value="&lt;div&gt;&lt;span style=&quot;color: rgb(63, 63, 63);&quot;&gt;&lt;font&gt;启动/停止 插件&lt;/font&gt;&lt;/span&gt;&lt;/div&gt;&lt;div&gt;&lt;span style=&quot;color: rgb(63, 63, 63);&quot;&gt;&lt;font&gt;&lt;b&gt;{ type: &quot;ginkgo&lt;/b&gt;&lt;/font&gt;&lt;/span&gt;&lt;b style=&quot;background-color: transparent; color: rgb(63, 63, 63);&quot;&gt;-msg&lt;/b&gt;&lt;b style=&quot;background-color: transparent; color: rgb(63, 63, 63);&quot;&gt;-content&lt;/b&gt;&lt;b style=&quot;background-color: transparent;&quot;&gt;-&lt;/b&gt;&lt;span style=&quot;background-color: transparent;&quot;&gt;&lt;b&gt;pilot-&lt;/b&gt;&lt;/span&gt;&lt;b style=&quot;background-color: transparent;&quot;&gt;start&quot; }&lt;/b&gt;&lt;/div&gt;&lt;span style=&quot;color: rgb(63, 63, 63);&quot;&gt;&lt;font&gt;window.postMessage(message, window.location.origin);&lt;/font&gt;&lt;/span&gt;" style="rounded=1;whiteSpace=wrap;html=1;" parent="1" vertex="1">
                    <mxGeometry x="85.5" y="370" width="320" height="60" as="geometry"/>
                </mxCell>
                <mxCell id="9" value="&lt;div&gt;&lt;span style=&quot;color: rgb(63, 63, 63);&quot;&gt;&lt;font&gt;注册监听插件是否安装 / 插件操作状态 从而更新页面状态&lt;/font&gt;&lt;/span&gt;&lt;/div&gt;&lt;div&gt;&lt;span style=&quot;color: rgb(63, 63, 63);&quot;&gt;&lt;font&gt;type以&amp;nbsp;&lt;/font&gt;&lt;/span&gt;&lt;b style=&quot;background-color: transparent;&quot;&gt;ginkgo&lt;/b&gt;&lt;b style=&quot;background-color: transparent; color: rgb(63, 63, 63);&quot;&gt;-msg&lt;/b&gt;&lt;b style=&quot;background-color: transparent; color: rgb(63, 63, 63);&quot;&gt;-page&lt;/b&gt;&lt;b style=&quot;background-color: transparent;&quot;&gt;-&lt;/b&gt;&lt;span style=&quot;background-color: transparent;&quot;&gt;&amp;nbsp;开头&lt;/span&gt;&lt;/div&gt;&lt;span style=&quot;color: rgb(63, 63, 63);&quot;&gt;&lt;font&gt;window.addEventListener(&quot;message&quot;, handleMessage);&lt;/font&gt;&lt;/span&gt;" style="rounded=1;whiteSpace=wrap;html=1;" parent="1" vertex="1">
                    <mxGeometry x="80" y="88" width="331" height="60" as="geometry"/>
                </mxCell>
                <mxCell id="10" value="&lt;div&gt;注册监听 Background 事件&lt;/div&gt;&lt;div&gt;&lt;span style=&quot;color: rgb(63, 63, 63);&quot;&gt;type以&amp;nbsp;&lt;/span&gt;&lt;b style=&quot;background-color: transparent; color: rgb(63, 63, 63);&quot;&gt;ginkgo&lt;/b&gt;&lt;b style=&quot;background-color: transparent; color: rgb(63, 63, 63);&quot;&gt;-&lt;/b&gt;&lt;b style=&quot;background-color: transparent; color: rgb(63, 63, 63);&quot;&gt;cnt-&lt;/b&gt;&lt;b style=&quot;background-color: transparent; color: rgb(63, 63, 63);&quot;&gt;content&lt;/b&gt;&lt;b style=&quot;background-color: transparent; color: rgb(63, 63, 63);&quot;&gt;-&lt;/b&gt;&lt;span style=&quot;background-color: transparent; color: rgb(63, 63, 63);&quot;&gt;&amp;nbsp;开头&lt;/span&gt;&lt;/div&gt;&lt;span style=&quot;color: rgb(63, 63, 63);&quot;&gt;&lt;font&gt;chrome.runtime.connect({ name: &quot;content-to-background&quot; })&lt;/font&gt;&lt;/span&gt;" style="rounded=1;whiteSpace=wrap;html=1;" parent="1" vertex="1">
                    <mxGeometry x="475.5" y="178" width="330" height="60" as="geometry"/>
                </mxCell>
                <mxCell id="13" style="edgeStyle=none;html=1;exitX=0;exitY=0.5;exitDx=0;exitDy=0;entryX=1;entryY=0.5;entryDx=0;entryDy=0;" parent="1" source="14" target="15" edge="1">
                    <mxGeometry relative="1" as="geometry"/>
                </mxCell>
                <mxCell id="14" value="&lt;div&gt;&lt;span style=&quot;color: rgb(63, 63, 63);&quot;&gt;&lt;font&gt;发送插件加载成功消息&lt;/font&gt;&lt;/span&gt;&lt;/div&gt;&lt;div&gt;&lt;font style=&quot;color: rgb(0, 0, 204);&quot;&gt;&lt;font style=&quot;color: rgb(0, 0, 204);&quot;&gt;&lt;b style=&quot;&quot;&gt;{ type: &quot;ginkgo&lt;/b&gt;&lt;/font&gt;&lt;b style=&quot;background-color: transparent;&quot;&gt;-&lt;/b&gt;&lt;/font&gt;&lt;b style=&quot;background-color: transparent;&quot;&gt;msg-&lt;/b&gt;&lt;b style=&quot;background-color: transparent;&quot;&gt;page&lt;/b&gt;&lt;b style=&quot;background-color: transparent;&quot;&gt;-load&quot; }&lt;/b&gt;&lt;/div&gt;&lt;span style=&quot;color: rgb(63, 63, 63);&quot;&gt;&lt;font&gt;window.postMessage(message, window.location.origin);&lt;/font&gt;&lt;/span&gt;" style="rounded=1;whiteSpace=wrap;html=1;" parent="1" vertex="1">
                    <mxGeometry x="480" y="268" width="318.5" height="60" as="geometry"/>
                </mxCell>
                <mxCell id="15" value="&lt;div&gt;更新页面状态&lt;/div&gt;" style="rounded=1;whiteSpace=wrap;html=1;" parent="1" vertex="1">
                    <mxGeometry x="85.5" y="268" width="320" height="60" as="geometry"/>
                </mxCell>
                <mxCell id="17" value="&lt;font style=&quot;font-size: 16px;&quot;&gt;Extensions&lt;/font&gt;" style="text;html=1;align=center;verticalAlign=middle;whiteSpace=wrap;rounded=0;fontStyle=1" parent="1" vertex="1">
                    <mxGeometry x="955.5" y="8" width="110" height="30" as="geometry"/>
                </mxCell>
                <mxCell id="18" value="&lt;font style=&quot;font-size: 16px;&quot;&gt;Browser&lt;/font&gt;" style="text;html=1;align=center;verticalAlign=middle;whiteSpace=wrap;rounded=0;fontStyle=1" parent="1" vertex="1">
                    <mxGeometry x="411" y="8" width="60" height="30" as="geometry"/>
                </mxCell>
                <mxCell id="19" value="&lt;font style=&quot;font-size: 16px;&quot;&gt;Sidepanel&lt;/font&gt;" style="text;html=1;align=center;verticalAlign=middle;whiteSpace=wrap;rounded=0;" parent="1" vertex="1">
                    <mxGeometry x="1325.5" y="38" width="110" height="30" as="geometry"/>
                </mxCell>
                <mxCell id="20" value="&lt;div&gt;&lt;span style=&quot;color: rgb(63, 63, 63);&quot;&gt;&lt;font&gt;注册监听 Content 事件 name: content-to-background&lt;/font&gt;&lt;/span&gt;&lt;/div&gt;&lt;div&gt;&lt;span style=&quot;color: rgb(63, 63, 63);&quot;&gt;&lt;font&gt;&lt;span style=&quot;color: rgb(63, 63, 63);&quot;&gt;type以&amp;nbsp;&lt;/span&gt;&lt;span style=&quot;color: rgb(63, 63, 63); background-color: transparent;&quot;&gt;&lt;b style=&quot;color: rgb(63, 63, 63);&quot;&gt;ginkgo&lt;/b&gt;&lt;b style=&quot;background-color: transparent; color: rgb(63, 63, 63);&quot;&gt;-&lt;/b&gt;&lt;/span&gt;&lt;/font&gt;&lt;/span&gt;&lt;b style=&quot;background-color: transparent; color: rgb(63, 63, 63);&quot;&gt;cnt-&lt;/b&gt;&lt;b style=&quot;background-color: transparent; color: rgb(63, 63, 63);&quot;&gt;background&lt;/b&gt;&lt;b style=&quot;background-color: transparent; color: rgb(63, 63, 63);&quot;&gt;-&lt;/b&gt;&lt;span style=&quot;background-color: transparent;&quot;&gt;&amp;nbsp;开头&lt;/span&gt;&lt;/div&gt;&lt;div&gt;chrome.runtime.onConnect.addListener&lt;/div&gt;" style="rounded=1;whiteSpace=wrap;html=1;" parent="1" vertex="1">
                    <mxGeometry x="845" y="88" width="331" height="60" as="geometry"/>
                </mxCell>
                <mxCell id="24" value="" style="endArrow=none;dashed=1;html=1;strokeWidth=5;" parent="1" edge="1">
                    <mxGeometry width="50" height="50" relative="1" as="geometry">
                        <mxPoint x="10" y="350" as="sourcePoint"/>
                        <mxPoint x="1636" y="350" as="targetPoint"/>
                    </mxGeometry>
                </mxCell>
                <mxCell id="32" style="edgeStyle=none;html=1;exitX=1;exitY=0.5;exitDx=0;exitDy=0;" parent="1" source="25" edge="1">
                    <mxGeometry relative="1" as="geometry">
                        <mxPoint x="850" y="399.8461538461538" as="targetPoint"/>
                    </mxGeometry>
                </mxCell>
                <mxCell id="25" value="&lt;div&gt;转发插件消息&lt;/div&gt;&lt;div&gt;&lt;font style=&quot;color: rgb(0, 0, 204);&quot;&gt;&lt;b style=&quot;color: rgb(63, 63, 63);&quot;&gt;{ type: &quot;ginkgo&lt;/b&gt;&lt;b style=&quot;background-color: transparent; color: rgb(63, 63, 63);&quot;&gt;-&lt;/b&gt;&lt;/font&gt;&lt;b style=&quot;background-color: transparent; color: rgb(63, 63, 63);&quot;&gt;cnt-&lt;/b&gt;&lt;b style=&quot;background-color: transparent; color: rgb(63, 63, 63);&quot;&gt;background&lt;/b&gt;&lt;b style=&quot;background-color: transparent; color: rgb(63, 63, 63);&quot;&gt;-&lt;/b&gt;&lt;b style=&quot;background-color: transparent; color: rgb(63, 63, 63);&quot;&gt;pilot-&lt;/b&gt;&lt;b style=&quot;background-color: transparent; color: rgb(63, 63, 63);&quot;&gt;start&quot; }&lt;/b&gt;&lt;/div&gt;&lt;span style=&quot;color: rgb(63, 63, 63);&quot;&gt;&lt;font&gt;port.postMessage({ message });&lt;/font&gt;&lt;/span&gt;" style="rounded=1;whiteSpace=wrap;html=1;" parent="1" vertex="1">
                    <mxGeometry x="473.5" y="370" width="330" height="60" as="geometry"/>
                </mxCell>
                <mxCell id="42" style="edgeStyle=none;html=1;exitX=0.5;exitY=1;exitDx=0;exitDy=0;entryX=0.5;entryY=0;entryDx=0;entryDy=0;" parent="1" source="27" target="39" edge="1">
                    <mxGeometry relative="1" as="geometry"/>
                </mxCell>
                <mxCell id="44" style="edgeStyle=none;html=1;exitX=1;exitY=0.5;exitDx=0;exitDy=0;" parent="1" source="27" edge="1">
                    <mxGeometry relative="1" as="geometry">
                        <mxPoint x="1225.5" y="1020" as="targetPoint"/>
                    </mxGeometry>
                </mxCell>
                <mxCell id="27" value="&lt;div&gt;&lt;span style=&quot;color: rgb(63, 63, 63);&quot;&gt;&lt;font&gt;发送插件状态更新消息&lt;/font&gt;&lt;/span&gt;&lt;/div&gt;&lt;div&gt;&lt;font style=&quot;color: rgb(0, 0, 204);&quot;&gt;&lt;font style=&quot;color: rgb(0, 0, 204);&quot;&gt;&lt;b style=&quot;&quot;&gt;{ type: &quot;&lt;/b&gt;&lt;/font&gt;&lt;b style=&quot;background-color: transparent; color: rgb(63, 63, 63);&quot;&gt;&lt;b style=&quot;color: rgb(63, 63, 63);&quot;&gt;ginkgo&lt;/b&gt;&lt;b style=&quot;background-color: transparent; color: rgb(63, 63, 63);&quot;&gt;-&lt;/b&gt;&lt;/b&gt;&lt;/font&gt;&lt;b style=&quot;background-color: transparent; color: rgb(63, 63, 63);&quot;&gt;&lt;b style=&quot;background-color: transparent; color: rgb(63, 63, 63);&quot;&gt;cnt&lt;/b&gt;-all&lt;/b&gt;&lt;b style=&quot;background-color: transparent; color: rgb(63, 63, 63);&quot;&gt;&lt;b style=&quot;background-color: transparent; color: rgb(63, 63, 63);&quot;&gt;-&lt;/b&gt;&lt;/b&gt;&lt;b style=&quot;background-color: transparent; color: rgb(63, 63, 63);&quot;&gt;pilot-update&lt;/b&gt;&lt;b style=&quot;background-color: transparent;&quot;&gt;&quot; }&lt;/b&gt;&lt;/div&gt;&lt;span style=&quot;color: rgb(63, 63, 63);&quot;&gt;port.postMessage({ message });&lt;/span&gt;" style="rounded=1;whiteSpace=wrap;html=1;" parent="1" vertex="1">
                    <mxGeometry x="856" y="990" width="320" height="60" as="geometry"/>
                </mxCell>
                <mxCell id="57" style="edgeStyle=none;html=1;exitX=0.5;exitY=1;exitDx=0;exitDy=0;entryX=0.5;entryY=0;entryDx=0;entryDy=0;" parent="1" source="31" target="49" edge="1">
                    <mxGeometry relative="1" as="geometry"/>
                </mxCell>
                <mxCell id="31" value="执行插件对应功能" style="rounded=1;whiteSpace=wrap;html=1;" parent="1" vertex="1">
                    <mxGeometry x="850.5" y="370" width="320" height="60" as="geometry"/>
                </mxCell>
                <mxCell id="35" value="&lt;div&gt;更新页面状态&lt;/div&gt;" style="rounded=1;whiteSpace=wrap;html=1;" parent="1" vertex="1">
                    <mxGeometry x="1226" y="990" width="320" height="60" as="geometry"/>
                </mxCell>
                <mxCell id="37" style="edgeStyle=none;html=1;exitX=0;exitY=0.5;exitDx=0;exitDy=0;entryX=1;entryY=0.5;entryDx=0;entryDy=0;" parent="1" source="39" target="40" edge="1">
                    <mxGeometry relative="1" as="geometry"/>
                </mxCell>
                <mxCell id="38" style="edgeStyle=none;html=1;exitX=0;exitY=0.5;exitDx=0;exitDy=0;entryX=1;entryY=0.5;entryDx=0;entryDy=0;" parent="1" source="40" target="41" edge="1">
                    <mxGeometry relative="1" as="geometry"/>
                </mxCell>
                <mxCell id="39" value="&lt;div&gt;&lt;span style=&quot;color: rgb(63, 63, 63);&quot;&gt;&lt;font&gt;发送插件状态更新消息&lt;/font&gt;&lt;/span&gt;&lt;/div&gt;&lt;div&gt;&lt;font style=&quot;color: rgb(0, 0, 204);&quot;&gt;&lt;font style=&quot;color: rgb(0, 0, 204);&quot;&gt;&lt;b style=&quot;&quot;&gt;{ type: &quot;&lt;/b&gt;&lt;/font&gt;&lt;b style=&quot;background-color: transparent; color: rgb(63, 63, 63);&quot;&gt;ginkgo&lt;/b&gt;&lt;b style=&quot;background-color: transparent; color: rgb(63, 63, 63);&quot;&gt;-&lt;/b&gt;&lt;/font&gt;&lt;b style=&quot;background-color: transparent; color: rgb(63, 63, 63);&quot;&gt;cnt-all&lt;/b&gt;&lt;b style=&quot;background-color: transparent; color: rgb(63, 63, 63);&quot;&gt;-&lt;/b&gt;&lt;b style=&quot;background-color: transparent; color: rgb(63, 63, 63);&quot;&gt;pilot-update&lt;/b&gt;&lt;b style=&quot;background-color: transparent;&quot;&gt;&quot; }&lt;/b&gt;&lt;/div&gt;&lt;span style=&quot;color: rgb(63, 63, 63);&quot;&gt;port.postMessage({ message });&lt;/span&gt;" style="rounded=1;whiteSpace=wrap;html=1;" parent="1" vertex="1">
                    <mxGeometry x="856" y="1100" width="320" height="60" as="geometry"/>
                </mxCell>
                <mxCell id="40" value="&lt;div&gt;&lt;font style=&quot;background-color: transparent; color: rgb(0, 0, 204);&quot;&gt;&lt;span style=&quot;color: rgb(63, 63, 63); background-color: transparent;&quot;&gt;转发插件状态更新消息&lt;/span&gt;&lt;/font&gt;&lt;/div&gt;&lt;div&gt;&lt;font style=&quot;color: rgb(0, 0, 204);&quot;&gt;&lt;font style=&quot;color: rgb(0, 0, 204);&quot;&gt;&lt;b style=&quot;&quot;&gt;{ type: &quot;&lt;/b&gt;&lt;/font&gt;&lt;b style=&quot;background-color: transparent; color: rgb(63, 63, 63);&quot;&gt;ginkgo&lt;/b&gt;&lt;b style=&quot;background-color: transparent; color: rgb(63, 63, 63);&quot;&gt;-&lt;/b&gt;&lt;/font&gt;&lt;b style=&quot;background-color: transparent; color: rgb(63, 63, 63);&quot;&gt;msg-&lt;/b&gt;&lt;b style=&quot;background-color: transparent; color: rgb(63, 63, 63);&quot;&gt;all&lt;/b&gt;&lt;b style=&quot;background-color: transparent; color: rgb(63, 63, 63);&quot;&gt;-&lt;/b&gt;&lt;b style=&quot;background-color: transparent; color: rgb(63, 63, 63);&quot;&gt;pilot-update&lt;/b&gt;&lt;b style=&quot;background-color: transparent; color: rgb(63, 63, 63);&quot;&gt;&quot; }&lt;/b&gt;&lt;/div&gt;&lt;span style=&quot;color: rgb(63, 63, 63);&quot;&gt;&lt;font&gt;window.postMessage(message, window.location.origin);&lt;/font&gt;&lt;/span&gt;" style="rounded=1;whiteSpace=wrap;html=1;" parent="1" vertex="1">
                    <mxGeometry x="481" y="1100" width="320" height="60" as="geometry"/>
                </mxCell>
                <mxCell id="41" value="&lt;div&gt;更新页面状态&lt;/div&gt;" style="rounded=1;whiteSpace=wrap;html=1;" parent="1" vertex="1">
                    <mxGeometry x="91" y="1100" width="320" height="60" as="geometry"/>
                </mxCell>
                <mxCell id="43" value="&lt;div&gt;&lt;span style=&quot;color: rgb(63, 63, 63);&quot;&gt;&lt;font&gt;注册监听 Background 事件&lt;/font&gt;&lt;/span&gt;&lt;/div&gt;&lt;div&gt;&lt;span style=&quot;color: rgb(63, 63, 63);&quot;&gt;&lt;font&gt;&lt;span style=&quot;color: rgb(63, 63, 63);&quot;&gt;type以&amp;nbsp;&lt;/span&gt;&lt;span style=&quot;color: rgb(63, 63, 63); background-color: transparent;&quot;&gt;&lt;b style=&quot;color: rgb(63, 63, 63);&quot;&gt;ginkgo&lt;/b&gt;&lt;b style=&quot;background-color: transparent; color: rgb(63, 63, 63);&quot;&gt;-&lt;/b&gt;&lt;/span&gt;&lt;/font&gt;&lt;/span&gt;&lt;b style=&quot;background-color: transparent; color: rgb(63, 63, 63);&quot;&gt;cnt-&lt;/b&gt;&lt;b style=&quot;background-color: transparent; color: rgb(63, 63, 63);&quot;&gt;sidepanel&lt;/b&gt;&lt;b style=&quot;background-color: transparent; color: rgb(63, 63, 63);&quot;&gt;-&lt;/b&gt;&lt;span style=&quot;background-color: transparent;&quot;&gt;&amp;nbsp;开头&lt;/span&gt;&lt;/div&gt;&lt;div&gt;&lt;span style=&quot;color: rgb(63, 63, 63);&quot;&gt;chrome.runtime.connect({ name: &quot;sidepanel-to-background&quot; })&lt;/span&gt;&lt;/div&gt;" style="rounded=1;whiteSpace=wrap;html=1;" parent="1" vertex="1">
                    <mxGeometry x="1215" y="88" width="331" height="60" as="geometry"/>
                </mxCell>
                <mxCell id="45" value="" style="endArrow=none;dashed=1;html=1;strokeWidth=5;" parent="1" edge="1">
                    <mxGeometry width="50" height="50" relative="1" as="geometry">
                        <mxPoint x="10" y="972" as="sourcePoint"/>
                        <mxPoint x="1636" y="972" as="targetPoint"/>
                    </mxGeometry>
                </mxCell>
                <mxCell id="46" value="" style="endArrow=none;dashed=1;html=1;strokeWidth=5;" parent="1" edge="1">
                    <mxGeometry width="50" height="50" relative="1" as="geometry">
                        <mxPoint x="10" y="665" as="sourcePoint"/>
                        <mxPoint x="1636" y="665" as="targetPoint"/>
                    </mxGeometry>
                </mxCell>
                <mxCell id="47" style="edgeStyle=none;html=1;exitX=0.5;exitY=1;exitDx=0;exitDy=0;entryX=0.5;entryY=0;entryDx=0;entryDy=0;" parent="1" source="49" target="53" edge="1">
                    <mxGeometry relative="1" as="geometry"/>
                </mxCell>
                <mxCell id="48" style="edgeStyle=none;html=1;exitX=1;exitY=0.5;exitDx=0;exitDy=0;" parent="1" source="49" edge="1">
                    <mxGeometry relative="1" as="geometry">
                        <mxPoint x="1220" y="504" as="targetPoint"/>
                    </mxGeometry>
                </mxCell>
                <mxCell id="49" value="&lt;div&gt;&lt;span style=&quot;color: rgb(63, 63, 63);&quot;&gt;&lt;font&gt;发送插件状态更新消息&lt;/font&gt;&lt;/span&gt;&lt;/div&gt;&lt;div&gt;&lt;font style=&quot;color: rgb(0, 0, 204);&quot;&gt;&lt;font style=&quot;color: rgb(0, 0, 204);&quot;&gt;&lt;b style=&quot;&quot;&gt;{ type: &quot;&lt;/b&gt;&lt;/font&gt;&lt;b style=&quot;background-color: transparent; color: rgb(63, 63, 63);&quot;&gt;&lt;b style=&quot;color: rgb(63, 63, 63);&quot;&gt;ginkgo&lt;/b&gt;&lt;b style=&quot;background-color: transparent; color: rgb(63, 63, 63);&quot;&gt;-&lt;/b&gt;&lt;/b&gt;&lt;/font&gt;&lt;b style=&quot;background-color: transparent; color: rgb(63, 63, 63);&quot;&gt;&lt;b style=&quot;background-color: transparent; color: rgb(63, 63, 63);&quot;&gt;cnt&lt;/b&gt;-all&lt;/b&gt;&lt;b style=&quot;background-color: transparent; color: rgb(63, 63, 63);&quot;&gt;&lt;b style=&quot;background-color: transparent; color: rgb(63, 63, 63);&quot;&gt;-&lt;/b&gt;&lt;/b&gt;&lt;b style=&quot;background-color: transparent; color: rgb(63, 63, 63);&quot;&gt;pilot-&lt;/b&gt;&lt;b style=&quot;background-color: transparent; color: rgb(63, 63, 63);&quot;&gt;start&lt;/b&gt;&lt;b style=&quot;background-color: transparent;&quot;&gt;&quot; }&lt;/b&gt;&lt;/div&gt;&lt;span style=&quot;color: rgb(63, 63, 63);&quot;&gt;port.postMessage({ message });&lt;/span&gt;" style="rounded=1;whiteSpace=wrap;html=1;" parent="1" vertex="1">
                    <mxGeometry x="850.5" y="474" width="320" height="60" as="geometry"/>
                </mxCell>
                <mxCell id="50" value="&lt;div&gt;更新页面状态&lt;/div&gt;" style="rounded=1;whiteSpace=wrap;html=1;" parent="1" vertex="1">
                    <mxGeometry x="1220.5" y="474" width="320" height="60" as="geometry"/>
                </mxCell>
                <mxCell id="51" style="edgeStyle=none;html=1;exitX=0;exitY=0.5;exitDx=0;exitDy=0;entryX=1;entryY=0.5;entryDx=0;entryDy=0;" parent="1" source="53" target="54" edge="1">
                    <mxGeometry relative="1" as="geometry"/>
                </mxCell>
                <mxCell id="52" style="edgeStyle=none;html=1;exitX=0;exitY=0.5;exitDx=0;exitDy=0;entryX=1;entryY=0.5;entryDx=0;entryDy=0;" parent="1" source="54" target="55" edge="1">
                    <mxGeometry relative="1" as="geometry"/>
                </mxCell>
                <mxCell id="53" value="&lt;div&gt;&lt;span style=&quot;color: rgb(63, 63, 63);&quot;&gt;&lt;font&gt;发送插件状态更新消息&lt;/font&gt;&lt;/span&gt;&lt;/div&gt;&lt;div&gt;&lt;font style=&quot;color: rgb(0, 0, 204);&quot;&gt;&lt;font style=&quot;color: rgb(0, 0, 204);&quot;&gt;&lt;b style=&quot;&quot;&gt;{ type: &quot;&lt;/b&gt;&lt;/font&gt;&lt;b style=&quot;background-color: transparent; color: rgb(63, 63, 63);&quot;&gt;ginkgo&lt;/b&gt;&lt;b style=&quot;background-color: transparent; color: rgb(63, 63, 63);&quot;&gt;-&lt;/b&gt;&lt;/font&gt;&lt;b style=&quot;background-color: transparent; color: rgb(63, 63, 63);&quot;&gt;cnt-all&lt;/b&gt;&lt;b style=&quot;background-color: transparent; color: rgb(63, 63, 63);&quot;&gt;-&lt;/b&gt;&lt;b style=&quot;background-color: transparent; color: rgb(63, 63, 63);&quot;&gt;pilot-&lt;/b&gt;&lt;b style=&quot;background-color: transparent; color: rgb(63, 63, 63);&quot;&gt;start&lt;/b&gt;&lt;b style=&quot;background-color: transparent;&quot;&gt;&quot; }&lt;/b&gt;&lt;/div&gt;&lt;span style=&quot;color: rgb(63, 63, 63);&quot;&gt;port.postMessage({ message });&lt;/span&gt;" style="rounded=1;whiteSpace=wrap;html=1;" parent="1" vertex="1">
                    <mxGeometry x="850.5" y="584" width="320" height="60" as="geometry"/>
                </mxCell>
                <mxCell id="54" value="&lt;div&gt;&lt;font style=&quot;background-color: transparent; color: rgb(0, 0, 204);&quot;&gt;&lt;span style=&quot;color: rgb(63, 63, 63); background-color: transparent;&quot;&gt;转发插件状态更新消息&lt;/span&gt;&lt;/font&gt;&lt;/div&gt;&lt;div&gt;&lt;font style=&quot;color: rgb(0, 0, 204);&quot;&gt;&lt;font style=&quot;color: rgb(0, 0, 204);&quot;&gt;&lt;b style=&quot;&quot;&gt;{ type: &quot;&lt;/b&gt;&lt;/font&gt;&lt;b style=&quot;background-color: transparent; color: rgb(63, 63, 63);&quot;&gt;ginkgo&lt;/b&gt;&lt;b style=&quot;background-color: transparent; color: rgb(63, 63, 63);&quot;&gt;-&lt;/b&gt;&lt;/font&gt;&lt;b style=&quot;background-color: transparent; color: rgb(63, 63, 63);&quot;&gt;msg-all&lt;/b&gt;&lt;b style=&quot;background-color: transparent; color: rgb(63, 63, 63);&quot;&gt;-&lt;/b&gt;&lt;b style=&quot;background-color: transparent; color: rgb(63, 63, 63);&quot;&gt;pilot-&lt;/b&gt;&lt;b style=&quot;background-color: transparent; color: rgb(63, 63, 63);&quot;&gt;&lt;b style=&quot;background-color: transparent; color: rgb(63, 63, 63);&quot;&gt;start&lt;/b&gt;&quot; }&lt;/b&gt;&lt;/div&gt;&lt;span style=&quot;color: rgb(63, 63, 63);&quot;&gt;&lt;font&gt;window.postMessage(message, window.location.origin);&lt;/font&gt;&lt;/span&gt;" style="rounded=1;whiteSpace=wrap;html=1;" parent="1" vertex="1">
                    <mxGeometry x="475.5" y="584" width="320" height="60" as="geometry"/>
                </mxCell>
                <mxCell id="55" value="&lt;div&gt;更新页面状态&lt;/div&gt;" style="rounded=1;whiteSpace=wrap;html=1;" parent="1" vertex="1">
                    <mxGeometry x="85.5" y="584" width="320" height="60" as="geometry"/>
                </mxCell>
                <mxCell id="73" style="edgeStyle=none;html=1;exitX=0;exitY=0.5;exitDx=0;exitDy=0;entryX=1;entryY=0.5;entryDx=0;entryDy=0;" parent="1" source="59" target="63" edge="1">
                    <mxGeometry relative="1" as="geometry"/>
                </mxCell>
                <mxCell id="59" value="&lt;div&gt;&lt;span style=&quot;color: rgb(63, 63, 63);&quot;&gt;&lt;font&gt;启动/停止 插件&lt;/font&gt;&lt;/span&gt;&lt;/div&gt;&lt;div&gt;&lt;div&gt;&lt;font style=&quot;color: rgb(0, 0, 204);&quot;&gt;&lt;b style=&quot;color: rgb(63, 63, 63);&quot;&gt;{ type: &quot;ginkgo&lt;/b&gt;&lt;b style=&quot;background-color: transparent; color: rgb(63, 63, 63);&quot;&gt;-&lt;/b&gt;&lt;/font&gt;&lt;b style=&quot;background-color: transparent; color: rgb(63, 63, 63);&quot;&gt;cnt-&lt;/b&gt;&lt;b style=&quot;background-color: transparent; color: rgb(63, 63, 63);&quot;&gt;background&lt;/b&gt;&lt;b style=&quot;background-color: transparent; color: rgb(63, 63, 63);&quot;&gt;-&lt;/b&gt;&lt;b style=&quot;background-color: transparent; color: rgb(63, 63, 63);&quot;&gt;pilot-&lt;/b&gt;&lt;b style=&quot;background-color: transparent; color: rgb(63, 63, 63);&quot;&gt;stop&quot; }&lt;/b&gt;&lt;/div&gt;&lt;span style=&quot;color: rgb(63, 63, 63);&quot;&gt;port.postMessage({ message });&lt;/span&gt;&lt;/div&gt;" style="rounded=1;whiteSpace=wrap;html=1;" parent="1" vertex="1">
                    <mxGeometry x="1220.5" y="690" width="320" height="60" as="geometry"/>
                </mxCell>
                <mxCell id="62" style="edgeStyle=none;html=1;exitX=0.5;exitY=1;exitDx=0;exitDy=0;entryX=0.5;entryY=0;entryDx=0;entryDy=0;" parent="1" source="63" target="66" edge="1">
                    <mxGeometry relative="1" as="geometry"/>
                </mxCell>
                <mxCell id="63" value="执行插件对应功能" style="rounded=1;whiteSpace=wrap;html=1;" parent="1" vertex="1">
                    <mxGeometry x="850.5" y="690" width="320" height="60" as="geometry"/>
                </mxCell>
                <mxCell id="64" style="edgeStyle=none;html=1;exitX=0.5;exitY=1;exitDx=0;exitDy=0;entryX=0.5;entryY=0;entryDx=0;entryDy=0;" parent="1" source="66" target="70" edge="1">
                    <mxGeometry relative="1" as="geometry"/>
                </mxCell>
                <mxCell id="65" style="edgeStyle=none;html=1;exitX=1;exitY=0.5;exitDx=0;exitDy=0;" parent="1" source="66" edge="1">
                    <mxGeometry relative="1" as="geometry">
                        <mxPoint x="1220" y="824" as="targetPoint"/>
                    </mxGeometry>
                </mxCell>
                <mxCell id="66" value="&lt;div&gt;&lt;span style=&quot;color: rgb(63, 63, 63);&quot;&gt;&lt;font&gt;发送插件状态更新消息&lt;/font&gt;&lt;/span&gt;&lt;/div&gt;&lt;div&gt;&lt;font style=&quot;color: rgb(0, 0, 204);&quot;&gt;&lt;font style=&quot;color: rgb(0, 0, 204);&quot;&gt;&lt;b style=&quot;&quot;&gt;{ type: &quot;&lt;/b&gt;&lt;/font&gt;&lt;b style=&quot;background-color: transparent; color: rgb(63, 63, 63);&quot;&gt;&lt;b style=&quot;color: rgb(63, 63, 63);&quot;&gt;ginkgo&lt;/b&gt;&lt;b style=&quot;background-color: transparent; color: rgb(63, 63, 63);&quot;&gt;-&lt;/b&gt;&lt;/b&gt;&lt;/font&gt;&lt;b style=&quot;background-color: transparent; color: rgb(63, 63, 63);&quot;&gt;&lt;b style=&quot;background-color: transparent; color: rgb(63, 63, 63);&quot;&gt;cnt&lt;/b&gt;-all&lt;/b&gt;&lt;b style=&quot;background-color: transparent; color: rgb(63, 63, 63);&quot;&gt;&lt;b style=&quot;background-color: transparent; color: rgb(63, 63, 63);&quot;&gt;-&lt;/b&gt;&lt;/b&gt;&lt;b style=&quot;background-color: transparent; color: rgb(63, 63, 63);&quot;&gt;pilot&lt;/b&gt;&lt;b style=&quot;background-color: transparent; color: rgb(63, 63, 63);&quot;&gt;-&lt;/b&gt;&lt;b style=&quot;background-color: transparent; color: rgb(63, 63, 63);&quot;&gt;stop&lt;/b&gt;&lt;b style=&quot;background-color: transparent;&quot;&gt;&quot; }&lt;/b&gt;&lt;/div&gt;&lt;span style=&quot;color: rgb(63, 63, 63);&quot;&gt;port.postMessage({ message });&lt;/span&gt;" style="rounded=1;whiteSpace=wrap;html=1;" parent="1" vertex="1">
                    <mxGeometry x="850.5" y="794" width="320" height="60" as="geometry"/>
                </mxCell>
                <mxCell id="67" value="&lt;div&gt;更新页面状态&lt;/div&gt;" style="rounded=1;whiteSpace=wrap;html=1;" parent="1" vertex="1">
                    <mxGeometry x="1220.5" y="794" width="320" height="60" as="geometry"/>
                </mxCell>
                <mxCell id="68" style="edgeStyle=none;html=1;exitX=0;exitY=0.5;exitDx=0;exitDy=0;entryX=1;entryY=0.5;entryDx=0;entryDy=0;" parent="1" source="70" target="71" edge="1">
                    <mxGeometry relative="1" as="geometry"/>
                </mxCell>
                <mxCell id="69" style="edgeStyle=none;html=1;exitX=0;exitY=0.5;exitDx=0;exitDy=0;entryX=1;entryY=0.5;entryDx=0;entryDy=0;" parent="1" source="71" target="72" edge="1">
                    <mxGeometry relative="1" as="geometry"/>
                </mxCell>
                <mxCell id="70" value="&lt;div&gt;&lt;span style=&quot;color: rgb(63, 63, 63);&quot;&gt;&lt;font&gt;发送插件状态更新消息&lt;/font&gt;&lt;/span&gt;&lt;/div&gt;&lt;div&gt;&lt;font style=&quot;color: rgb(0, 0, 204);&quot;&gt;&lt;font style=&quot;color: rgb(0, 0, 204);&quot;&gt;&lt;b style=&quot;&quot;&gt;{ type: &quot;&lt;/b&gt;&lt;/font&gt;&lt;b style=&quot;background-color: transparent; color: rgb(63, 63, 63);&quot;&gt;ginkgo&lt;/b&gt;&lt;b style=&quot;background-color: transparent; color: rgb(63, 63, 63);&quot;&gt;-&lt;/b&gt;&lt;/font&gt;&lt;b style=&quot;background-color: transparent; color: rgb(63, 63, 63);&quot;&gt;cnt-all&lt;/b&gt;&lt;b style=&quot;background-color: transparent; color: rgb(63, 63, 63);&quot;&gt;-&lt;/b&gt;&lt;b style=&quot;background-color: transparent; color: rgb(63, 63, 63);&quot;&gt;pilot-&lt;/b&gt;&lt;b style=&quot;background-color: transparent; color: rgb(63, 63, 63);&quot;&gt;stop&lt;/b&gt;&lt;b style=&quot;background-color: transparent;&quot;&gt;&quot; }&lt;/b&gt;&lt;/div&gt;&lt;span style=&quot;color: rgb(63, 63, 63);&quot;&gt;port.postMessage({ message });&lt;/span&gt;" style="rounded=1;whiteSpace=wrap;html=1;" parent="1" vertex="1">
                    <mxGeometry x="850.5" y="896" width="320" height="60" as="geometry"/>
                </mxCell>
                <mxCell id="71" value="&lt;div&gt;&lt;font style=&quot;background-color: transparent; color: rgb(0, 0, 204);&quot;&gt;&lt;span style=&quot;color: rgb(63, 63, 63); background-color: transparent;&quot;&gt;转发插件状态更新消息&lt;/span&gt;&lt;/font&gt;&lt;/div&gt;&lt;div&gt;&lt;font style=&quot;color: rgb(0, 0, 204);&quot;&gt;&lt;font style=&quot;color: rgb(0, 0, 204);&quot;&gt;&lt;b style=&quot;&quot;&gt;{ type: &quot;&lt;/b&gt;&lt;/font&gt;&lt;b style=&quot;background-color: transparent; color: rgb(63, 63, 63);&quot;&gt;ginkgo&lt;/b&gt;&lt;b style=&quot;background-color: transparent; color: rgb(63, 63, 63);&quot;&gt;-&lt;/b&gt;&lt;/font&gt;&lt;b style=&quot;background-color: transparent; color: rgb(63, 63, 63);&quot;&gt;msg-all&lt;/b&gt;&lt;b style=&quot;background-color: transparent; color: rgb(63, 63, 63);&quot;&gt;-&lt;/b&gt;&lt;b style=&quot;background-color: transparent; color: rgb(63, 63, 63);&quot;&gt;pilot-&lt;/b&gt;&lt;b style=&quot;background-color: transparent; color: rgb(63, 63, 63);&quot;&gt;&lt;b style=&quot;background-color: transparent; color: rgb(63, 63, 63);&quot;&gt;stop&lt;/b&gt;&quot; }&lt;/b&gt;&lt;/div&gt;&lt;span style=&quot;color: rgb(63, 63, 63);&quot;&gt;&lt;font&gt;window.postMessage(message, window.location.origin);&lt;/font&gt;&lt;/span&gt;" style="rounded=1;whiteSpace=wrap;html=1;" parent="1" vertex="1">
                    <mxGeometry x="475.5" y="896" width="320" height="60" as="geometry"/>
                </mxCell>
                <mxCell id="72" value="&lt;div&gt;更新页面状态&lt;/div&gt;" style="rounded=1;whiteSpace=wrap;html=1;" parent="1" vertex="1">
                    <mxGeometry x="85.5" y="896" width="320" height="60" as="geometry"/>
                </mxCell>
                <mxCell id="74" value="&lt;div&gt;&lt;span style=&quot;color: rgb(63, 63, 63);&quot;&gt;&lt;font&gt;注册监听 Content 事件&amp;nbsp;&lt;/font&gt;&lt;/span&gt;&lt;span style=&quot;color: rgb(63, 63, 63); background-color: transparent;&quot;&gt;name: sidepanel-to-background&lt;/span&gt;&lt;/div&gt;&lt;div&gt;&lt;span style=&quot;color: rgb(63, 63, 63);&quot;&gt;&lt;font&gt;&lt;span style=&quot;color: rgb(63, 63, 63);&quot;&gt;type以&amp;nbsp;&lt;/span&gt;&lt;span style=&quot;color: rgb(63, 63, 63); background-color: transparent;&quot;&gt;&lt;b style=&quot;color: rgb(63, 63, 63);&quot;&gt;ginkgo&lt;/b&gt;&lt;b style=&quot;background-color: transparent; color: rgb(63, 63, 63);&quot;&gt;-&lt;/b&gt;&lt;/span&gt;&lt;/font&gt;&lt;/span&gt;&lt;b style=&quot;background-color: transparent; color: rgb(63, 63, 63);&quot;&gt;cnt-&lt;/b&gt;&lt;b style=&quot;background-color: transparent; color: rgb(63, 63, 63);&quot;&gt;background&lt;/b&gt;&lt;b style=&quot;background-color: transparent; color: rgb(63, 63, 63);&quot;&gt;-&lt;/b&gt;&lt;span style=&quot;background-color: transparent;&quot;&gt;&amp;nbsp;开头&lt;/span&gt;&lt;/div&gt;&lt;div&gt;chrome.runtime.onConnect.addListener&lt;/div&gt;" style="rounded=1;whiteSpace=wrap;html=1;" parent="1" vertex="1">
                    <mxGeometry x="845" y="178" width="331" height="60" as="geometry"/>
                </mxCell>
                <mxCell id="76" value="Init" style="text;html=1;align=center;verticalAlign=middle;whiteSpace=wrap;rounded=0;fontSize=16;" parent="1" vertex="1">
                    <mxGeometry y="68" width="60" height="30" as="geometry"/>
                </mxCell>
                <mxCell id="77" value="Page" style="text;html=1;align=center;verticalAlign=middle;whiteSpace=wrap;rounded=0;fontSize=16;" parent="1" vertex="1">
                    <mxGeometry y="360" width="60" height="30" as="geometry"/>
                </mxCell>
                <mxCell id="78" value="Sidepanel" style="text;html=1;align=center;verticalAlign=middle;whiteSpace=wrap;rounded=0;fontSize=16;" parent="1" vertex="1">
                    <mxGeometry y="680" width="80" height="30" as="geometry"/>
                </mxCell>
                <mxCell id="79" value="Background" style="text;html=1;align=center;verticalAlign=middle;whiteSpace=wrap;rounded=0;fontSize=16;" parent="1" vertex="1">
                    <mxGeometry y="990" width="100" height="30" as="geometry"/>
                </mxCell>
            </root>
        </mxGraphModel>
    </diagram>
</mxfile>